<mxfile host="65bd71144e">
    <diagram id="Q8ZCVBfkGdzVq4fk389N" name="Page-1">
        <mxGraphModel dx="527" dy="876" grid="0" gridSize="10" guides="1" tooltips="1" connect="1" arrows="1" fold="1" page="1" pageScale="1" pageWidth="827" pageHeight="1169" math="1" shadow="0">
            <root>
                <mxCell id="0"/>
                <mxCell id="1" parent="0"/>
                <mxCell id="61" value="Customer" style="swimlane;fontStyle=1;align=center;verticalAlign=top;childLayout=stackLayout;horizontal=1;startSize=26;horizontalStack=0;resizeParent=1;resizeParentMax=0;resizeLast=0;collapsible=1;marginBottom=0;fontFamily=Alegreya Sans;fontSize=11;fontSource=https%3A%2F%2Ffonts.googleapis.com%2Fcss%3Ffamily%3DAlegreya%2BSans;" parent="1" vertex="1">
                    <mxGeometry x="59" y="157" width="134" height="124" as="geometry">
                        <mxRectangle x="850" y="510" width="80" height="30" as="alternateBounds"/>
                    </mxGeometry>
                </mxCell>
                <mxCell id="62" value="customerNo" style="text;strokeColor=none;fillColor=none;align=left;verticalAlign=middle;spacingLeft=3;spacingRight=4;overflow=hidden;rotatable=0;points=[[0,0.5],[1,0.5]];portConstraint=eastwest;fontFamily=Alegreya;fontSize=11;fontStyle=0;html=1;imageWidth=24;imageHeight=24;comic=0;imageAspect=0;" parent="61" vertex="1">
                    <mxGeometry y="26" width="134" height="18" as="geometry"/>
                </mxCell>
                <mxCell id="63" value="password" style="text;strokeColor=none;fillColor=none;align=left;verticalAlign=middle;spacingLeft=3;spacingRight=4;overflow=hidden;rotatable=0;points=[[0,0.5],[1,0.5]];portConstraint=eastwest;fontFamily=Alegreya;fontSize=11;fontStyle=0;html=1;imageWidth=24;imageHeight=24;comic=0;imageAspect=0;" parent="61" vertex="1">
                    <mxGeometry y="44" width="134" height="18" as="geometry"/>
                </mxCell>
                <mxCell id="71" value="name" style="text;strokeColor=none;fillColor=none;align=left;verticalAlign=middle;spacingLeft=3;spacingRight=4;overflow=hidden;rotatable=0;points=[[0,0.5],[1,0.5]];portConstraint=eastwest;fontFamily=Alegreya;fontSize=11;fontStyle=0;html=1;imageWidth=24;imageHeight=24;comic=0;imageAspect=0;" parent="61" vertex="1">
                    <mxGeometry y="62" width="134" height="18" as="geometry"/>
                </mxCell>
                <mxCell id="72" value="address" style="text;strokeColor=none;fillColor=none;align=left;verticalAlign=middle;spacingLeft=3;spacingRight=4;overflow=hidden;rotatable=0;points=[[0,0.5],[1,0.5]];portConstraint=eastwest;fontFamily=Alegreya;fontSize=11;fontStyle=0;html=1;imageWidth=24;imageHeight=24;comic=0;imageAspect=0;" parent="61" vertex="1">
                    <mxGeometry y="80" width="134" height="18" as="geometry"/>
                </mxCell>
                <mxCell id="64" value="" style="line;strokeWidth=1;fillColor=none;align=left;verticalAlign=middle;spacingTop=-1;spacingLeft=3;spacingRight=3;rotatable=0;labelPosition=right;points=[];portConstraint=eastwest;strokeColor=inherit;fontFamily=Alegreya;fontSize=11;" parent="61" vertex="1">
                    <mxGeometry y="98" width="134" height="8" as="geometry"/>
                </mxCell>
                <mxCell id="65" value="order()" style="text;strokeColor=none;fillColor=none;align=left;verticalAlign=middle;spacingLeft=3;spacingRight=4;overflow=hidden;rotatable=0;points=[[0,0.5],[1,0.5]];portConstraint=eastwest;fontFamily=Alegreya;fontSize=11;fontStyle=0;html=1;imageWidth=24;imageHeight=24;comic=0;imageAspect=0;" parent="61" vertex="1">
                    <mxGeometry y="106" width="134" height="18" as="geometry"/>
                </mxCell>
                <mxCell id="67" value="" style="endArrow=none;shadow=0;strokeWidth=1;rounded=0;endFill=0;elbow=vertical;" parent="1" source="73" target="87" edge="1">
                    <mxGeometry x="0.5" y="41" relative="1" as="geometry">
                        <mxPoint x="268" y="387" as="sourcePoint"/>
                        <mxPoint x="468" y="387" as="targetPoint"/>
                        <mxPoint x="-40" y="32" as="offset"/>
                    </mxGeometry>
                </mxCell>
                <mxCell id="68" value="1" style="resizable=0;align=left;verticalAlign=bottom;labelBackgroundColor=none;fontSize=12;fontFamily=Alegreya;spacingBottom=2;" parent="67" connectable="0" vertex="1">
                    <mxGeometry x="-1" relative="1" as="geometry">
                        <mxPoint x="8" y="-5" as="offset"/>
                    </mxGeometry>
                </mxCell>
                <mxCell id="69" value="n" style="resizable=0;align=right;verticalAlign=bottom;labelBackgroundColor=none;fontSize=12;fontFamily=Alegreya;spacingBottom=2;" parent="67" connectable="0" vertex="1">
                    <mxGeometry x="1" relative="1" as="geometry">
                        <mxPoint x="-6" y="-4" as="offset"/>
                    </mxGeometry>
                </mxCell>
                <mxCell id="70" value="includes&amp;nbsp;&lt;span style=&quot;text-align: left;&quot;&gt;â–¸&lt;/span&gt;" style="text;html=1;resizable=0;points=[];;align=center;verticalAlign=middle;labelBackgroundColor=none;rounded=0;shadow=0;strokeWidth=1;fontSize=12;fontFamily=Alegreya;" parent="67" vertex="1" connectable="0">
                    <mxGeometry relative="1" as="geometry">
                        <mxPoint y="-10" as="offset"/>
                    </mxGeometry>
                </mxCell>
                <mxCell id="73" value="ShoppingCart" style="swimlane;fontStyle=1;align=center;verticalAlign=top;childLayout=stackLayout;horizontal=1;startSize=26;horizontalStack=0;resizeParent=1;resizeParentMax=0;resizeLast=0;collapsible=1;marginBottom=0;fontFamily=Alegreya Sans;fontSize=11;fontSource=https%3A%2F%2Ffonts.googleapis.com%2Fcss%3Ffamily%3DAlegreya%2BSans;" parent="1" vertex="1">
                    <mxGeometry x="55" y="401" width="134" height="70" as="geometry">
                        <mxRectangle x="850" y="510" width="80" height="30" as="alternateBounds"/>
                    </mxGeometry>
                </mxCell>
                <mxCell id="78" value="" style="line;strokeWidth=1;fillColor=none;align=left;verticalAlign=middle;spacingTop=-1;spacingLeft=3;spacingRight=3;rotatable=0;labelPosition=right;points=[];portConstraint=eastwest;strokeColor=inherit;fontFamily=Alegreya;fontSize=11;" parent="73" vertex="1">
                    <mxGeometry y="26" width="134" height="8" as="geometry"/>
                </mxCell>
                <mxCell id="79" value="add(entry)" style="text;strokeColor=none;fillColor=none;align=left;verticalAlign=middle;spacingLeft=3;spacingRight=4;overflow=hidden;rotatable=0;points=[[0,0.5],[1,0.5]];portConstraint=eastwest;fontFamily=Alegreya;fontSize=11;fontStyle=0;html=1;imageWidth=24;imageHeight=24;comic=0;imageAspect=0;" parent="73" vertex="1">
                    <mxGeometry y="34" width="134" height="18" as="geometry"/>
                </mxCell>
                <mxCell id="103" value="remove(entry)" style="text;strokeColor=none;fillColor=none;align=left;verticalAlign=middle;spacingLeft=3;spacingRight=4;overflow=hidden;rotatable=0;points=[[0,0.5],[1,0.5]];portConstraint=eastwest;fontFamily=Alegreya;fontSize=11;fontStyle=0;html=1;imageWidth=24;imageHeight=24;comic=0;imageAspect=0;" parent="73" vertex="1">
                    <mxGeometry y="52" width="134" height="18" as="geometry"/>
                </mxCell>
                <mxCell id="80" value="CustomerManagement" style="swimlane;fontStyle=1;align=center;verticalAlign=top;childLayout=stackLayout;horizontal=1;startSize=26;horizontalStack=0;resizeParent=1;resizeParentMax=0;resizeLast=0;collapsible=1;marginBottom=0;fontFamily=Alegreya Sans;fontSize=11;fontSource=https%3A%2F%2Ffonts.googleapis.com%2Fcss%3Ffamily%3DAlegreya%2BSans;" parent="1" vertex="1">
                    <mxGeometry x="322" y="192" width="134" height="52" as="geometry">
                        <mxRectangle x="850" y="510" width="80" height="30" as="alternateBounds"/>
                    </mxGeometry>
                </mxCell>
                <mxCell id="85" value="" style="line;strokeWidth=1;fillColor=none;align=left;verticalAlign=middle;spacingTop=-1;spacingLeft=3;spacingRight=3;rotatable=0;labelPosition=right;points=[];portConstraint=eastwest;strokeColor=inherit;fontFamily=Alegreya;fontSize=11;" parent="80" vertex="1">
                    <mxGeometry y="26" width="134" height="8" as="geometry"/>
                </mxCell>
                <mxCell id="86" value="generateCustomerNo()" style="text;strokeColor=none;fillColor=none;align=left;verticalAlign=middle;spacingLeft=3;spacingRight=4;overflow=hidden;rotatable=0;points=[[0,0.5],[1,0.5]];portConstraint=eastwest;fontFamily=Alegreya;fontSize=11;fontStyle=0;imageWidth=24;imageHeight=24;comic=0;imageAspect=0;" parent="80" vertex="1">
                    <mxGeometry y="34" width="134" height="18" as="geometry"/>
                </mxCell>
                <mxCell id="87" value="CartEntry" style="swimlane;fontStyle=1;align=center;verticalAlign=top;childLayout=stackLayout;horizontal=1;startSize=26;horizontalStack=0;resizeParent=1;resizeParentMax=0;resizeLast=0;collapsible=1;marginBottom=0;fontFamily=Alegreya Sans;fontSize=11;fontSource=https%3A%2F%2Ffonts.googleapis.com%2Fcss%3Ffamily%3DAlegreya%2BSans;" parent="1" vertex="1">
                    <mxGeometry x="300" y="400" width="134" height="70" as="geometry">
                        <mxRectangle x="850" y="510" width="80" height="30" as="alternateBounds"/>
                    </mxGeometry>
                </mxCell>
                <mxCell id="88" value="count" style="text;strokeColor=none;fillColor=none;align=left;verticalAlign=middle;spacingLeft=3;spacingRight=4;overflow=hidden;rotatable=0;points=[[0,0.5],[1,0.5]];portConstraint=eastwest;fontFamily=Alegreya;fontSize=11;fontStyle=0;html=1;imageWidth=24;imageHeight=24;comic=0;imageAspect=0;" parent="87" vertex="1">
                    <mxGeometry y="26" width="134" height="18" as="geometry"/>
                </mxCell>
                <mxCell id="92" value="" style="line;strokeWidth=1;fillColor=none;align=left;verticalAlign=middle;spacingTop=-1;spacingLeft=3;spacingRight=3;rotatable=0;labelPosition=right;points=[];portConstraint=eastwest;strokeColor=inherit;fontFamily=Alegreya;fontSize=11;" parent="87" vertex="1">
                    <mxGeometry y="44" width="134" height="8" as="geometry"/>
                </mxCell>
                <mxCell id="93" value="setCount(count)" style="text;strokeColor=none;fillColor=none;align=left;verticalAlign=middle;spacingLeft=3;spacingRight=4;overflow=hidden;rotatable=0;points=[[0,0.5],[1,0.5]];portConstraint=eastwest;fontFamily=Alegreya;fontSize=11;fontStyle=0;html=1;imageWidth=24;imageHeight=24;comic=0;imageAspect=0;" parent="87" vertex="1">
                    <mxGeometry y="52" width="134" height="18" as="geometry"/>
                </mxCell>
                <mxCell id="94" value="Product" style="swimlane;fontStyle=1;align=center;verticalAlign=top;childLayout=stackLayout;horizontal=1;startSize=26;horizontalStack=0;resizeParent=1;resizeParentMax=0;resizeLast=0;collapsible=1;marginBottom=0;fontFamily=Alegreya Sans;fontSize=11;fontSource=https%3A%2F%2Ffonts.googleapis.com%2Fcss%3Ffamily%3DAlegreya%2BSans;" parent="1" vertex="1">
                    <mxGeometry x="539" y="408" width="134" height="52" as="geometry">
                        <mxRectangle x="850" y="510" width="80" height="30" as="alternateBounds"/>
                    </mxGeometry>
                </mxCell>
                <mxCell id="95" value="no" style="text;strokeColor=none;fillColor=none;align=left;verticalAlign=middle;spacingLeft=3;spacingRight=4;overflow=hidden;rotatable=0;points=[[0,0.5],[1,0.5]];portConstraint=eastwest;fontFamily=Alegreya;fontSize=11;fontStyle=0;html=1;imageWidth=24;imageHeight=24;comic=0;imageAspect=0;" parent="94" vertex="1">
                    <mxGeometry y="26" width="134" height="18" as="geometry"/>
                </mxCell>
                <mxCell id="99" value="" style="line;strokeWidth=1;fillColor=none;align=left;verticalAlign=middle;spacingTop=-1;spacingLeft=3;spacingRight=3;rotatable=0;labelPosition=right;points=[];portConstraint=eastwest;strokeColor=inherit;fontFamily=Alegreya;fontSize=11;" parent="94" vertex="1">
                    <mxGeometry y="44" width="134" height="8" as="geometry"/>
                </mxCell>
                <mxCell id="104" value="" style="endArrow=none;shadow=0;strokeWidth=1;rounded=0;endFill=0;elbow=vertical;" parent="1" source="87" target="94" edge="1">
                    <mxGeometry x="0.5" y="41" relative="1" as="geometry">
                        <mxPoint x="199" y="459.45606694560684" as="sourcePoint"/>
                        <mxPoint x="304" y="480.5439330543934" as="targetPoint"/>
                        <mxPoint x="-40" y="32" as="offset"/>
                    </mxGeometry>
                </mxCell>
                <mxCell id="105" value="1" style="resizable=0;align=left;verticalAlign=bottom;labelBackgroundColor=none;fontSize=12;fontFamily=Alegreya;spacingBottom=2;" parent="104" connectable="0" vertex="1">
                    <mxGeometry x="-1" relative="1" as="geometry">
                        <mxPoint x="7" y="-4" as="offset"/>
                    </mxGeometry>
                </mxCell>
                <mxCell id="106" value="1" style="resizable=0;align=right;verticalAlign=bottom;labelBackgroundColor=none;fontSize=12;fontFamily=Alegreya;spacingBottom=2;" parent="104" connectable="0" vertex="1">
                    <mxGeometry x="1" relative="1" as="geometry">
                        <mxPoint x="-5" y="-4" as="offset"/>
                    </mxGeometry>
                </mxCell>
                <mxCell id="107" value="has&amp;nbsp;&lt;span style=&quot;text-align: left;&quot;&gt;â–¸&lt;/span&gt;" style="text;html=1;resizable=0;points=[];;align=center;verticalAlign=middle;labelBackgroundColor=none;rounded=0;shadow=0;strokeWidth=1;fontSize=12;fontFamily=Alegreya;" parent="104" vertex="1" connectable="0">
                    <mxGeometry relative="1" as="geometry">
                        <mxPoint y="-10" as="offset"/>
                    </mxGeometry>
                </mxCell>
                <mxCell id="108" value="" style="endArrow=none;shadow=0;strokeWidth=1;rounded=0;endFill=0;elbow=vertical;" parent="1" source="61" target="73" edge="1">
                    <mxGeometry x="0.5" y="41" relative="1" as="geometry">
                        <mxPoint x="112" y="305" as="sourcePoint"/>
                        <mxPoint x="220" y="329.5439330543934" as="targetPoint"/>
                        <mxPoint x="-40" y="32" as="offset"/>
                    </mxGeometry>
                </mxCell>
                <mxCell id="109" value="1" style="resizable=0;align=left;verticalAlign=bottom;labelBackgroundColor=none;fontSize=12;fontFamily=Alegreya;spacingBottom=2;" parent="108" connectable="0" vertex="1">
                    <mxGeometry x="-1" relative="1" as="geometry">
                        <mxPoint x="-23" y="26" as="offset"/>
                    </mxGeometry>
                </mxCell>
                <mxCell id="110" value="1" style="resizable=0;align=right;verticalAlign=bottom;labelBackgroundColor=none;fontSize=12;fontFamily=Alegreya;spacingBottom=2;" parent="108" connectable="0" vertex="1">
                    <mxGeometry x="1" relative="1" as="geometry">
                        <mxPoint x="-8" y="-7" as="offset"/>
                    </mxGeometry>
                </mxCell>
                <mxCell id="111" value="has&amp;nbsp;&lt;span style=&quot;text-align: left;&quot;&gt;â–¸&lt;/span&gt;" style="text;html=1;resizable=0;points=[];;align=center;verticalAlign=middle;labelBackgroundColor=none;rounded=0;shadow=0;strokeWidth=1;fontSize=12;fontFamily=Alegreya;rotation=90;" parent="108" vertex="1" connectable="0">
                    <mxGeometry relative="1" as="geometry">
                        <mxPoint x="14" as="offset"/>
                    </mxGeometry>
                </mxCell>
                <mxCell id="116" value="" style="endArrow=none;shadow=0;strokeWidth=1;rounded=0;endFill=0;elbow=vertical;" parent="1" source="80" target="61" edge="1">
                    <mxGeometry x="0.5" y="41" relative="1" as="geometry">
                        <mxPoint x="474.9999999999998" y="275" as="sourcePoint"/>
                        <mxPoint x="274.9999999999998" y="275" as="targetPoint"/>
                        <mxPoint x="-40" y="32" as="offset"/>
                    </mxGeometry>
                </mxCell>
                <mxCell id="117" value="1" style="resizable=0;align=left;verticalAlign=bottom;labelBackgroundColor=none;fontSize=12;fontFamily=Alegreya;spacingBottom=2;" parent="116" connectable="0" vertex="1">
                    <mxGeometry x="-1" relative="1" as="geometry">
                        <mxPoint x="-14" y="-3" as="offset"/>
                    </mxGeometry>
                </mxCell>
                <mxCell id="118" value="n" style="resizable=0;align=right;verticalAlign=bottom;labelBackgroundColor=none;fontSize=12;fontFamily=Alegreya;spacingBottom=2;" parent="116" connectable="0" vertex="1">
                    <mxGeometry x="1" relative="1" as="geometry">
                        <mxPoint x="15" y="-6" as="offset"/>
                    </mxGeometry>
                </mxCell>
                <mxCell id="119" value="&lt;span style=&quot;font-family: &amp;quot;helvetica&amp;quot; ; text-align: left&quot;&gt;â—‚&lt;/span&gt;&amp;nbsp;manages" style="text;html=1;resizable=0;points=[];;align=center;verticalAlign=middle;labelBackgroundColor=none;rounded=0;shadow=0;strokeWidth=1;fontSize=12;fontFamily=Alegreya;" parent="116" vertex="1" connectable="0">
                    <mxGeometry relative="1" as="geometry">
                        <mxPoint y="-10" as="offset"/>
                    </mxGeometry>
                </mxCell>
            </root>
        </mxGraphModel>
    </diagram>
</mxfile>
